<?xml version="1.0" encoding="iso-8859-1"?>
<!-- Generator: Adobe Illustrator 19.0.1, SVG Export Plug-In . SVG Version: 6.00 Build 0)  -->
<svg version="1.1" id="Layer_1" xmlns="http://www.w3.org/2000/svg" xmlns:xlink="http://www.w3.org/1999/xlink" x="0px" y="0px"
	 viewBox="0 0 299.17 120" style="enable-background:new 0 0 299.17 120;" xml:space="preserve">
<g>
	<g>
		<path style="fill:#FFFFFF;" d="M299.17,82.101c-1.945-2.838-3.778-5.485-5.501-7.941c-1.498-2.104-3.013-4.233-4.544-6.386
			c-1.531-2.153-2.727-3.818-3.588-4.999c2.614-1.881,4.688-3.659,6.218-5.333s2.71-3.444,3.54-5.309
			c0.829-1.866,1.355-3.922,1.578-6.171c0.223-2.248,0.335-4.902,0.335-7.964v-5.023h-14.493v12.676
			c0,1.563-0.033,2.831-0.096,3.803c-0.063,0.972-0.191,1.77-0.383,2.391c-0.191,0.622-0.47,1.165-0.837,1.627
			c-0.366,0.463-0.837,0.95-1.411,1.459c-0.606-0.766-1.284-1.673-2.033-2.727c-0.749-1.052-1.547-2.168-2.391-3.348
			c-0.846-1.179-1.715-2.383-2.606-3.611c-0.894-1.228-1.755-2.432-2.584-3.612c-2.041-2.742-4.099-5.629-6.17-8.659h-15.977v1.005
			c1.69,2.232,3.285,4.385,4.783,6.457c1.308,1.755,2.615,3.533,3.922,5.335c1.308,1.801,2.361,3.197,3.158,4.185
			c-2.169,2.009-3.939,3.747-5.309,5.214c-1.372,1.467-2.448,3.084-3.229,4.855c-0.782,1.77-1.301,3.915-1.555,6.432
			c-0.255,2.52-0.382,5.837-0.382,9.95v6.648h14.015v-7.653c0-2.2-0.024-4.185-0.072-5.955c-0.047-1.77,0-3.34,0.143-4.712
			c0.145-1.37,0.39-2.582,0.742-3.636c0.351-1.052,0.957-2.025,1.818-2.917c0.574,0.829,1.251,1.818,2.033,2.965
			c0.781,1.149,1.618,2.392,2.511,3.731c0.892,1.34,1.824,2.712,2.798,4.114c0.972,1.403,1.921,2.792,2.846,4.162
			c2.136,3.125,4.417,6.426,6.841,9.901h15.88V82.101z M243.702,32.975h-13.92v50.082h13.92V32.975z M224.953,46.775
			c-0.543-3.173-1.483-5.772-2.822-7.797c-1.34-2.025-3.157-3.532-5.453-4.521c-2.297-0.988-5.166-1.483-8.61-1.483h-28.031v23.056
			c0,2.264,0.526,3.891,1.578,4.88c1.052,0.989,2.456,1.482,4.21,1.482h15.067v-9.71h-5.884c-0.319,0-0.574-0.08-0.766-0.24
			c-0.19-0.158-0.287-0.574-0.287-1.244v-7.127h13.107c0.605,0,1.179,0.128,1.722,0.383c0.541,0.256,0.956,0.782,1.244,1.578
			c0.255,0.702,0.51,2.137,0.766,4.305c0.255,2.169,0.382,4.72,0.382,7.653c0,5.677-0.415,9.488-1.244,11.432
			c-0.286,0.606-0.701,1.052-1.244,1.339c-0.543,0.288-1.116,0.431-1.722,0.431h-26.643v11.862h27.36
			c3.444,0,6.321-0.526,8.635-1.578c2.311-1.052,4.177-2.638,5.596-4.759c1.419-2.121,2.416-4.744,2.989-7.869
			c0.574-3.125,0.862-6.744,0.862-10.858C225.767,53.687,225.494,49.948,224.953,46.775 M173.156,32.975h-24.873v11.863h11.719
			l-1.53,18.607c-0.351,3.476-1.195,5.837-2.535,7.08c-1.339,1.244-3.476,1.865-6.41,1.865h-0.478c-1.563,0-2.887-0.103-3.971-0.311
			c-1.084-0.207-1.954-0.598-2.606-1.173c-0.654-0.573-1.141-1.387-1.459-2.439c-0.319-1.052-0.511-2.423-0.574-4.114l-2.784-46.638
			h-14.206l3.262,46.351c0.318,4.56,1.132,8.275,2.439,11.145c1.308,2.87,3.301,5.023,5.98,6.458c1.627,0.861,3.508,1.45,5.644,1.77
			c2.136,0.318,4.608,0.478,7.415,0.478h2.056c4.751,0,8.635-0.797,11.648-2.391c3.013-1.595,5.364-3.954,7.055-7.079
			c0.924-1.69,1.61-3.564,2.056-5.621c0.446-2.056,0.829-4.424,1.149-7.103l2.774-25.878
			C175.117,33.932,174.528,32.975,173.156,32.975 M120.05,32.975h-13.92v28.748h13.92V32.975z M102.164,48.473
			c0-5.484-1.308-9.518-3.922-12.102c-2.615-2.582-6.601-3.874-11.959-3.874h-4.592c-1.691,0-3.19,0.184-4.497,0.55
			c-1.308,0.366-2.424,0.806-3.348,1.316c-0.766,0.543-1.507,1.236-2.225,2.08c-0.718,0.846-1.355,1.786-1.913,2.822
			c-0.558,1.037-1.021,2.08-1.387,3.133c-0.368,1.053-0.647,1.994-0.837,2.823h-0.191l-4.305-12.246H48.782l7.94,23.439
			l-6.075,26.643h14.111L71.885,51.2c0.541-2.264,1.45-4.034,2.727-5.309c1.274-1.275,3.044-1.913,5.309-1.913h1.387
			c2.487,0,4.265,0.55,5.333,1.649c1.067,1.1,1.602,2.767,1.602,4.999v20.569H76.429v11.862h25.735V48.473z M45.131,35.893v-0.622
			c0-1.53-0.431-2.296-1.292-2.296H18.488V17.716H4.568v25.352c0,0.925,0.127,1.452,0.383,1.578
			c0.255,0.128,0.653,0.191,1.195,0.191h23.391l-2.918,20.185c-0.383,2.743-1.444,4.577-3.181,5.502
			c-1.739,0.924-3.66,1.387-5.764,1.387h-2.248v11.145c0.605,0.127,1.331,0.255,2.177,0.383c0.844,0.127,1.698,0.191,2.558,0.191
			c2.614,0,5.03-0.327,7.246-0.98c2.217-0.654,4.186-1.714,5.908-3.182c1.723-1.465,3.173-3.372,4.353-5.716
			c1.179-2.343,2.073-5.221,2.679-8.633l4.688-28.509C45.099,36.356,45.131,36.116,45.131,35.893"/>
	</g>
	<g>
		<path style="fill:#FFFFFF;" d="M98.885,99.939c0.164-0.055,0.24-0.128,0.328-0.223c0.917-0.987,1.883-1.93,3.285-2.154
			c0.954-0.153,1.914-0.135,2.839,0.241c0.435,0.177,0.66,0.458,0.782,0.925c0.098,0.374,0.288,0.729,0.358,1.122
			c0.093,0.522,0.152,1.051,0.346,1.579c0.47-0.727,1.061-1.37,1.664-1.98c0.717-0.725,1.439-1.494,2.439-1.862
			c0.907-0.334,1.831-0.394,2.781-0.165c0.56,0.135,0.807,0.415,0.932,1.013c0.186,0.894,0.091,1.71-0.174,2.56
			c-0.293,0.944-0.673,1.855-0.982,2.79c-0.401,1.215-0.849,2.425-0.864,3.734c-0.009,0.715,0.202,1.351,0.601,1.931
			c0.083,0.121,0.186,0.184,0.349,0.068c0.481-0.341,0.836-0.793,1.204-1.245c0.372-0.456,0.669-0.953,0.971-1.451
			c0.486-0.803,0.967-1.608,1.442-2.418c0.727-1.242,1.474-2.468,2.488-3.507c0.446-0.457,0.847-0.963,1.326-1.382
			c0.735-0.643,1.513-1.259,2.44-1.59c0.406-0.145,0.866-0.194,1.304-0.273c0.668-0.12,1.313-0.343,1.994-0.415
			c0.691-0.073,1.339-0.005,2.014,0.198c0.486,0.146,0.938,0.397,1.419,0.493c0.825,0.164,1.351,0.727,1.865,1.272
			c0.463,0.49,0.854,1.07,1.11,1.716c0.035,0.089,0.069,0.157,0.027,0.273c-0.06,0.166-0.083,0.353,0.14,0.48
			c0.18,0.102,0.229,0.918,0.119,1.092c-0.063,0.099-0.19,0.158-0.329,0.119c-0.362-0.102-0.734-0.119-1.106-0.153
			c-0.211-0.02-0.273,0.046-0.359,0.2c-0.362,0.646-0.64,1.339-1.077,1.941c-0.526,0.724-0.957,1.507-1.353,2.302
			c-0.29,0.583-0.5,1.215-0.475,1.9c0.027,0.735,0.635,1.038,1.2,0.702c0.531-0.316,1.142-0.477,1.626-0.871
			c0.614-0.501,1.322-0.866,1.953-1.35c0.308-0.236,0.562-0.554,0.939-0.718c0.247-0.108,0.397-0.376,0.192-0.619
			c-0.211-0.251-0.198-0.562-0.333-0.823c-0.083-0.16,0.118-0.157,0.116-0.237c-0.004-0.159,0.036-0.299-0.035-0.487
			c-0.148-0.39,0.025-0.835,0.179-1.192c0.082-0.19,0.269-0.292,0.104-0.521c-0.01-0.013-0.029-0.128,0.05-0.095
			c0.386,0.162,0.029-0.16,0.125-0.198c0.02-0.008-0.023-0.179-0.006-0.185c0.347-0.12,0.367-0.362,0.241-0.646
			c-0.085-0.193-0.031-0.249,0.167-0.233c0.112,0.009,0.13-0.112,0.087-0.156c-0.434-0.447-0.118-0.862,0.113-1.205
			c0.176-0.261,0.264-0.547,0.323-0.812c0.133-0.596,0.455-1.09,0.725-1.611c0.169-0.326,0.286-0.671,0.452-0.996
			c0.195-0.381,0.401-0.756,0.601-1.135c0.047-0.09,0.108-0.223,0.213-0.122c0.267,0.254,0.246-0.042,0.336-0.149
			c0.076-0.091-0.098-0.327,0.185-0.304c0.045,0.004,0.001-0.108-0.047-0.146c-0.205-0.163-0.217-0.18-0.063-0.398
			c0.186-0.263,0.305-0.569,0.551-0.796c0.09-0.083,0.113-0.238,0.168-0.361c0.149-0.004,0.138,0.31,0.304,0.184
			c0.183-0.139,0.271-0.367,0.327-0.594c0.029-0.116-0.403-0.021-0.127-0.276c0.115-0.107,0.191-0.258,0.28-0.391
			c0.29-0.435,0.529-0.896,0.881-1.299c0.277-0.318,0.611-0.614,0.765-1.044c0.065-0.183,0.23-0.352,0.391-0.475
			c0.633-0.483,1.075-1.163,1.71-1.64c0.597-0.448,1.273-0.778,2.009-0.839c0.713-0.059,1.4,0.217,2.028,0.543
			c0.45,0.233,0.814,1.551,0.628,2.034c-0.029,0.075,0.018,0.113,0.029,0.162c0.169,0.698,0.047,1.345-0.298,1.967
			c-0.087,0.158-0.088,0.361-0.168,0.525c-0.111,0.228-0.215,0.2-0.247-0.095c-0.079,0.204-0.079,0.367-0.076,0.531
			c0.006,0.338-0.363,0.481-0.41,0.791c-0.072,0.479-0.51,0.776-0.612,1.239c-0.016,0.071-0.01,0.147-0.019,0.3
			c0.096-0.212,0.241-0.182,0.391-0.206c-0.365,0.149-0.155,0.58-0.471,0.794c-0.486,0.33-0.897,0.753-1.069,1.353
			c-0.027,0.094-0.12,0.182-0.204,0.243c-0.12,0.087-0.197,0.138-0.125,0.324c0.037,0.096,0.201,0.441-0.217,0.367
			c-0.072-0.013-0.066,0.175-0.043,0.187c0.272,0.145,0.043,0.291-0.016,0.395c-0.134,0.236-0.294,0.524-0.489,0.638
			c-0.242,0.143-0.248,0.605-0.657,0.486c-0.031,0.114-0.208,0.163-0.117,0.343c0.031,0.061-0.072,0.199-0.131,0.292
			c-0.092,0.145-0.33,0.217-0.213,0.47c0.009,0.019-0.06,0.261-0.246,0.22c-0.059-0.013-0.111-0.001-0.107,0.061
			c0.028,0.434-0.304,0.658-0.528,0.954c-0.166,0.219-0.435,0.409-0.353,0.763c0.017,0.072-0.078,0.171-0.122,0.257
			c-0.372-0.317-0.353,0.231-0.581,0.269c-0.187,0.031-0.222,0.291-0.429,0.379c-0.129,0.055-0.073,0.27,0.202,0.293
			c-0.222,0.084-0.52,0.006-0.371,0.409c0.063,0.169-0.311,0.334-0.462,0.532c-0.382,0.503-0.894,0.896-1.356,1.315
			c-0.287,0.26-0.486,0.679-0.959,0.762c0.569,0.637,1.161,1.16,1.907,1.544c0.523,0.269,1.044,0.524,1.602,0.687
			c0.614,0.18,1.243,0.291,1.884,0.36c0.698,0.076,1.393,0.142,2.097,0.153c0.585,0.009,1.161-0.071,1.741-0.104
			c0.384-0.021,0.765-0.124,1.148-0.129c0.679-0.009,1.329-0.194,1.997-0.269c0.787-0.089,1.575-0.198,2.35-0.356
			c0.686-0.14,1.385-0.176,2.073-0.332c0.37-0.084,0.777-0.276,1.195-0.13c0.056,0.019,0.142-0.029,0.207-0.061
			c0.591-0.29,1.227-0.163,1.911-0.249c-0.236,0.364-0.537,0.577-0.85,0.601c-1.019,0.077-1.917,0.585-2.906,0.752
			c-0.426,0.072-0.846,0.174-1.27,0.254c-0.133,0.025-0.28-0.004-0.339,0.174c-0.026,0.077-0.1,0.077-0.135,0.003
			c-0.045-0.098-0.099-0.105-0.17-0.039c-0.432,0.402-1.003,0.243-1.503,0.37c-0.454,0.115-0.942,0.05-1.38,0.29
			c-0.175,0.096-0.407,0.092-0.615,0.123c-2.102,0.318-4.219,0.228-6.333,0.222c-0.305-0.001-0.608-0.111-0.915-0.142
			c-0.578-0.058-1.154-0.156-1.702-0.322c-0.674-0.204-1.393-0.335-1.955-0.824c-0.183-0.159-0.458-0.031-0.662-0.204
			c-0.289-0.245-0.561-0.51-0.86-0.746c-0.13-0.103-0.295-0.064-0.31-0.047c-0.392,0.469-0.956,0.687-1.442,1.018
			c-0.358,0.244-0.698,0.509-1.084,0.718c-0.322,0.174-0.637,0.286-1.001,0.255c-0.05-0.004-0.111-0.018-0.15,0.004
			c-0.577,0.324-1.228,0.436-1.843,0.651c-0.092,0.032-0.199,0.025-0.3,0.025c-0.827-0.003-1.669,0.09-2.471-0.161
			c-0.621-0.195-1.212-0.492-1.529-1.118c-0.074-0.146-0.14-0.148-0.247-0.083c-1.106,0.669-2.322,0.866-3.589,0.83
			c-0.691-0.02-1.392,0.097-2.071-0.082c-0.384-0.101-0.771-0.186-1.148-0.348c-0.581-0.249-0.95-0.667-1.275-1.165
			c-0.124-0.19-0.238-0.149-0.383,0.001c-0.399,0.413-0.733,0.89-1.214,1.227c-0.195,0.136-0.462,0.12-0.619,0.32
			c0.013,0.023,0.022,0.045,0.036,0.062c0.11,0.131,0.427,0.024,0.391,0.307c-0.034,0.258-0.269,0.354-0.476,0.445
			c-0.504,0.22-1.036,0.116-1.541,0.052c-0.658-0.083-1.338-0.145-1.945-0.441c-0.62-0.302-1.192-0.664-1.588-1.279
			c-0.415-0.644-0.652-1.359-0.64-2.079c0.012-0.722,0.05-1.465,0.277-2.188c0.154-0.493,0.288-0.999,0.437-1.499
			c0.222-0.743,0.525-1.456,0.761-2.193c0.2-0.626,0.373-1.26,0.571-1.933c-0.299,0.063-0.406,0.28-0.56,0.427
			c-0.592,0.565-1.11,1.201-1.584,1.862c-0.369,0.515-0.73,1.041-1.05,1.594c-0.617,1.067-1.217,2.141-1.786,3.234
			c-0.547,1.05-1.094,2.099-1.716,3.108c-0.082,0.133-0.184,0.237-0.289,0.342c-0.155,0.153-0.274,0.294-0.276,0.545
			c-0.002,0.241-0.129,0.446-0.444,0.452c-0.198,0.004-0.394,0.082-0.593,0.11c-0.511,0.072-1.012-0.105-1.522-0.075
			c-0.034,0.002-0.074-0.043-0.104-0.036c-0.64,0.154-0.73-0.392-0.907-0.761c-0.095-0.197-0.043-0.482,0.174-0.661
			c0.455-0.376,0.54-0.923,0.674-1.448c0.034-0.132,0.049-0.273,0.109-0.391c0.234-0.458,0.231-0.99,0.434-1.447
			c0.341-0.768,0.49-1.592,0.762-2.379c0.198-0.573,0.367-1.172,0.513-1.77c0.181-0.743,0.149-1.491,0.162-2.242
			c0.004-0.229-0.045-0.445-0.08-0.667c-0.066-0.421-0.236-0.503-0.556-0.239c-0.236,0.194-0.485,0.358-0.738,0.525
			c-0.275,0.181-0.642,0.455-0.728,0.699c-0.181,0.51-0.654,0.718-0.9,1.147c-0.271,0.473-0.481,0.997-0.874,1.393
			c-0.181,0.182-0.163,0.479-0.297,0.619c-0.197,0.206-0.203,0.462-0.338,0.667c-0.282,0.428-0.338,0.983-0.687,1.355
			c-0.364,0.389-0.628,0.847-0.88,1.289c-0.222,0.391-0.587,0.709-0.642,1.228c-0.04,0.38-0.298,0.742-0.475,1.103
			c-0.354,0.719-0.727,1.433-0.71,2.265c0.004,0.216-0.085,0.25-0.268,0.243c-0.404-0.017-0.791,0.114-1.174,0.17
			c-0.396,0.058-0.89,0.114-1.322-0.134c-0.264-0.152-0.331-0.346-0.274-0.588c0.245-1.045,0.344-2.118,0.654-3.153
			c0.224-0.747,0.519-1.464,0.768-2.199c0.185-0.549,0.398-1.082,0.619-1.616c0.407-0.986,0.676-2.02,0.937-3.049
			c0.182-0.719,0.043-1.485,0.05-2.229c0.002-0.2-0.154-0.145-0.236-0.067c-0.311,0.295-0.857,0.273-1.013,0.808
			c-0.042,0.143-0.214,0.378-0.481,0.427c-0.102,0.019-0.247,0.152-0.262,0.36c-0.008,0.113-0.055,0.384-0.325,0.345
			c-0.022-0.003-0.21,0.412-0.211,0.465c-0.005,0.135-0.158,0.115-0.215,0.225c-0.316,0.617-0.776,1.128-1.223,1.656
			c-0.357,0.421-0.731,0.836-1.046,1.301c-0.384,0.569-0.641,1.226-1.081,1.741c-0.586,0.685-1.128,1.419-1.821,2.009
			c-0.194,0.165-0.333,0.375-0.518,0.549c-0.689,0.65-1.559,0.884-2.419,1.15c-0.271,0.084-0.566,0.093-0.83,0.192
			c-0.776,0.292-1.619-0.121-2.024-0.753c-0.136-0.212-0.274-0.437-0.438-0.639c-0.138-0.171-0.193-0.384-0.227-0.617
			c-0.075-0.512-0.206-1.016-0.335-1.518c-0.042-0.166-0.021-0.326-0.032-0.488c-0.006-0.087-0.045-0.159-0.112-0.182
			c-0.11-0.039-0.086,0.104-0.125,0.127c-0.443,0.261-0.45,0.82-0.792,1.142c-0.334,0.315-0.675,0.626-1.036,0.909
			c-0.578,0.453-1.237,0.79-1.896,1.093c-0.898,0.413-1.796,0.814-2.825,0.918c-1.109,0.111-2.172,0.006-3.202-0.336
			c-0.976-0.323-1.876-0.804-2.684-1.486c-0.608-0.513-1.139-1.07-1.653-1.671c-0.705-0.825-1.173-1.779-1.69-2.712
			c-0.361-0.651-0.622-1.346-0.819-2.055c-0.214-0.766-0.366-1.547-0.433-2.351c-0.079-0.941,0.061-1.863,0.088-2.794
			c0.029-1.004,0.183-2.002,0.351-2.979c0.117-0.68,0.212-1.399,0.487-2.063c0.177-0.426,0.293-0.877,0.405-1.331
			c0.154-0.622,0.431-1.217,0.687-1.81c0.311-0.718,0.63-1.435,0.992-2.128c0.417-0.799,0.85-1.594,1.345-2.345
			c0.312-0.474,0.637-0.945,0.945-1.423c0.197-0.304,0.285-0.676,0.549-0.949c0.044-0.046,0.038-0.154-0.073-0.166
			c-0.075-0.009-0.163-0.025-0.226,0.004c-0.53,0.24-1.103,0.282-1.665,0.358c-0.6,0.081-1.124,0.378-1.697,0.527
			c-0.824,0.214-1.48,0.762-2.232,1.119c-0.493,0.234-1.016,0.289-1.542,0.338c-0.301,0.028-0.608,0.007-0.912,0.005
			c-0.376-0.003-0.745-0.31-0.74-0.677c0.004-0.254,0.198-0.471,0.406-0.593c0.763-0.446,1.554-0.833,2.371-1.177
			c0.842-0.355,1.703-0.653,2.589-0.828c0.884-0.174,1.749-0.452,2.672-0.467c0.689-0.011,1.376-0.178,2.06-0.3
			c0.155-0.028,0.25-0.191,0.324-0.344c0.268-0.554,0.575-1.112,0.942-1.578c0.514-0.653,0.819-1.42,1.349-2.066
			c0.678-0.826,1.187-1.788,1.789-2.678c0.629-0.929,1.336-1.805,1.963-2.732c0.502-0.742,1.104-1.41,1.557-2.186
			c0.195-0.335,0.526-0.566,0.739-0.899c0.468-0.73,1.002-1.417,1.409-2.187c0.051-0.097,0.076-0.209,0.102-0.317
			c0.164-0.673,0.385-0.892,1.07-0.871c0.54,0.017,1.084,0.106,1.597,0.3c0.309,0.117,0.461,0.565,0.375,0.866
			c-0.19,0.667-0.596,1.199-0.972,1.765c-0.292,0.439-0.608,0.855-0.925,1.272c-0.475,0.623-0.949,1.246-1.45,1.85
			c-0.376,0.454-0.669,0.975-1.017,1.453c-0.653,0.895-1.343,1.764-1.975,2.674c-0.63,0.906-1.219,1.841-1.804,2.778
			c-0.278,0.445-0.652,0.827-0.888,1.29c-0.207,0.407-0.494,0.76-0.695,1.166c-0.081,0.163-0.023,0.241,0.149,0.229
			c0.475-0.032,0.95,0.006,1.429-0.041c0.334-0.033,0.703-0.127,1.052,0.025c0.208,0.09,0.417-0.074,0.626-0.054
			c0.711,0.069,1.436-0.12,2.139,0.136c0.185,0.067,0.385-0.062,0.588-0.073c0.795-0.042,1.565,0.281,2.359,0.157
			c0.673-0.105,1.34,0.035,2.011,0.012c0.151-0.005,0.295,0.072,0.462,0.073c0.178,0,0.323,0.08,0.529-0.027
			c0.149-0.077,0.402,0.026,0.602,0.076c0.254,0.063,0.487,0.135,0.763,0.039c0.192-0.067,0.405-0.023,0.616,0.123
			c0.278,0.192,0.654,0.115,0.981,0.143c0.246,0.022,0.381,0.117,0.519,0.276c0.09,0.103,0.166,0.222,0.304,0.274
			c0.176,0.066,0.204,0.046,0.231-0.15c0.014-0.1,0.086-0.148,0.186-0.15c0.123-0.001,0.245,0,0.423,0
			c-0.115,0.132-0.194,0.223-0.305,0.351c0.336,0.024,0.626,0.124,0.945,0.155c0.184,0.018,0.462,0.135,0.681,0.248
			c-0.031,0.046,0.025,0.079,0.033,0.068c0.262-0.345,0.375,0.059,0.642,0.131c-0.748,0.137-1.411,0.147-2.089,0.047
			c-0.609-0.09-1.228-0.115-1.843-0.164c-1.027-0.082-2.054-0.134-3.084-0.175c-0.918-0.037-1.837-0.155-2.759-0.126
			c-1.197,0.038-2.389-0.146-3.587-0.063c-1.133,0.079-2.269,0.024-3.402,0.071c-0.695,0.029-1.387,0.148-2.086,0.139
			c-0.11-0.001-0.187,0.03-0.251,0.127c-0.309,0.465-0.605,0.94-0.911,1.405c-0.328,0.498-0.632,1.014-0.944,1.519
			c-0.284,0.459-0.553,0.942-0.808,1.425c-0.345,0.651-0.722,1.285-1.051,1.943c-0.187,0.374-0.36,0.763-0.552,1.13
			c-0.242,0.462-0.28,0.985-0.579,1.434c-0.302,0.454-0.374,1.033-0.514,1.569c-0.276,1.057-0.463,2.13-0.669,3.202
			c-0.196,1.017-0.215,2.039-0.235,3.059c-0.01,0.509-0.072,1.044,0.045,1.535c0.161,0.677,0.214,1.378,0.525,2.032
			c0.168,0.353,0.26,0.762,0.447,1.121c0.154,0.295,0.27,0.614,0.502,0.865c0.207,0.224,0.32,0.514,0.47,0.769
			c0.626,1.061,1.498,1.872,2.463,2.599c0.679,0.512,1.422,0.858,2.271,1.055c0.587,0.136,1.16,0.255,1.758,0.267
			c0.785,0.015,1.39-0.36,1.911-0.902c0.69-0.717,1.28-1.52,1.885-2.307c0.354-0.461,0.683-0.959,0.985-1.45
			c0.411-0.67,0.893-1.287,1.311-1.948c0.407-0.642,0.64-1.358,0.885-2.071c0.191-0.556,0.371-1.114,0.553-1.671
			c0.107-0.325,0.282-0.657,0.476-0.938c0.164-0.238,0.203-0.455,0.177-0.698c-0.049-0.441,0.203-0.622,0.552-0.795
			c0.447-0.222,0.908-0.37,1.396-0.465c0.492-0.096,1.252,0.304,1.39,0.777c0.033,0.113,0.039,0.283-0.024,0.367
			c-0.585,0.778-0.783,1.722-1.137,2.598c-0.271,0.669-0.602,1.328-0.764,2.024c-0.156,0.671-0.419,1.32-0.435,2.032
			c-0.011,0.487-0.158,0.973-0.245,1.459c-0.185,1.036-0.134,2.039,0.179,3.04c0.098,0.312,0.233,0.579,0.431,0.847
			c0.182,0.246,0.261,0.161,0.384,0.011c0.588-0.712,1.163-1.436,1.759-2.142c0.625-0.741,1.027-1.628,1.614-2.398
			c0.377-0.494,0.781-0.964,1.153-1.457c0.375-0.496,0.683-1.047,1.04-1.562c0.533-0.769,1.13-1.467,1.837-2.095
			c0.86-0.765,1.864-1.198,2.938-1.47c0.574-0.145,1.198-0.168,1.801-0.102c0.602,0.066,1.207,0.681,1.305,1.406
			c0.035,0.255,0.245,0.431,0.197,0.716C98.767,99.407,98.852,99.663,98.885,99.939z M138.182,100.036
			c-0.024,0.034-0.048,0.069-0.071,0.103c0.043,0.005,0.087,0.01,0.13,0.015c0.026,0.084,0.051,0.161,0.012,0.257
			c-0.226,0.553-0.475,1.095-0.63,1.678c-0.197,0.737-0.444,1.461-0.472,2.317c0.311-0.324,0.597-0.594,0.851-0.891
			c0.543-0.635,1.1-1.26,1.651-1.887c0.518-0.588,1.012-1.201,1.441-1.842c0.581-0.867,1.115-1.771,1.719-2.622
			c0.468-0.659,0.846-1.375,1.219-2.072c0.499-0.933,0.965-1.903,1.325-2.915c0.377-1.058,0.624-2.121,0.555-3.248
			c-0.007-0.114,0.018-0.264-0.107-0.295c-0.133-0.033-0.262,0.052-0.344,0.174c-0.083,0.123-0.135,0.281-0.245,0.368
			c-0.744,0.585-1.312,1.344-1.857,2.088c-0.587,0.801-1.235,1.569-1.704,2.459c-0.227,0.431-0.57,0.8-0.807,1.227
			c-0.184,0.331-0.441,0.613-0.597,0.957c-0.236,0.522-0.448,1.054-0.722,1.559c-0.211,0.389-0.488,0.73-0.608,1.185
			C138.789,99.152,138.686,99.713,138.182,100.036z M120.073,107.552c-0.07,1.212,0.977,1.98,1.873,1.862
			c0.664-0.087,1.255-0.423,1.775-0.872c0.681-0.589,1.249-1.28,1.819-1.966c0.52-0.626,1.023-1.269,1.41-1.996
			c0.276-0.52,0.597-1.014,0.874-1.536c0.27-0.509,0.459-1.043,0.679-1.567c0.223-0.53,0.257-1.122,0.513-1.644
			c0.045-0.092,0.016-0.16-0.046-0.238c-0.489-0.614-1.493-0.928-2.256-0.654c-0.697,0.25-1.329,0.637-1.942,1.048
			c-0.391,0.262-0.811,0.507-1.129,0.843c-0.481,0.509-1.011,0.974-1.397,1.579c-0.263,0.414-0.596,0.782-0.81,1.235
			c-0.174,0.368-0.431,0.699-0.591,1.072c-0.196,0.459-0.337,0.943-0.487,1.42C120.213,106.599,120.047,107.057,120.073,107.552z
			 M139.647,92.825c-0.022-0.009-0.043-0.027-0.061-0.024c-0.018,0.004-0.049,0.031-0.046,0.042c0.009,0.039,0.04,0.053,0.076,0.03
			C139.63,92.864,139.636,92.842,139.647,92.825z"/>
		<path style="fill:#FFFFFF;" d="M5.11,90.763c0.264-0.354,0.634-0.628,0.807-1.049c0.084-0.205,0.284-0.017,0.393-0.144
			c0.451-0.526,1.051-0.922,1.405-1.524c0.125-0.213,0.304-0.392,0.394-0.62c0.073-0.182,0.157-0.301,0.377-0.264
			c0.254,0.043,0.272-0.241,0.347-0.346c0.475-0.661,1.048-1.218,1.728-1.64c0.241-0.149,0.434-0.295,0.572-0.525
			c0.144-0.241,0.447-0.089,0.63-0.285c0.16-0.172,0.517-0.156,0.485-0.518c-0.001-0.008,0.017-0.026,0.025-0.026
			c0.468,0.04,0.505-0.498,0.878-0.643c0.378-0.147,0.709-0.442,1.081-0.643c0.194-0.105,0.369-0.211,0.597-0.266
			c0.144-0.035,0.322-0.235,0.486-0.319c0.855-0.435,1.71-0.884,2.604-1.226c1.205-0.46,2.451-0.809,3.717-1.067
			c0.511-0.104,1.043-0.098,1.56-0.175c1.069-0.16,2.115-0.033,3.147,0.235c0.762,0.198,1.499,0.477,2.204,0.831
			c0.212,0.107,0.42,0.249,0.216,0.533c-0.114,0.16,0.136,0.195,0.096,0.34c-0.308,0.083-0.621,0.194-0.943,0.247
			c-0.254,0.042-0.537,0.099-0.772-0.055c-0.357-0.233-0.772-0.332-1.14-0.532c-0.318-0.173-0.679-0.204-1.01-0.212
			c-1.125-0.027-2.244-0.047-3.363,0.238c-0.683,0.173-1.344,0.412-2,0.638c-0.496,0.171-0.986,0.445-1.464,0.705
			c-0.414,0.225-0.879,0.372-1.305,0.599c-0.304,0.162-0.602,0.311-0.853,0.564c-0.124,0.125-0.358,0.117-0.526,0.244
			c-0.298,0.226-0.613,0.422-0.875,0.702c-0.1,0.107-0.222,0.336-0.46,0.201c-0.298,0.507-1.004,0.58-1.232,1.162
			c-0.013,0.033-0.025,0.078-0.051,0.091c-0.826,0.427-1.29,1.268-2.045,1.784c-0.379,0.259-0.581,0.717-0.927,1.038
			c-0.344,0.32-0.604,0.729-0.918,1.084c-0.134,0.152-0.269,0.296-0.335,0.49c-0.07,0.204-0.219,0.297-0.43,0.302
			c0.018,0.15,0.283,0.047,0.22,0.248c-0.278-0.129,0.018,0.51-0.401,0.29c-0.127-0.067-0.341,0.247-0.461,0.423
			c-0.028,0.041-0.29,0.217-0.028,0.372c0.147,0.087-0.016,0.229-0.062,0.275c-0.275,0.275-0.519,0.563-0.651,0.938
			c-0.021,0.061-0.138,0.088-0.21,0.131c-0.022-0.063,0.029-0.149-0.051-0.19c-0.013-0.007-0.063,0.036-0.082,0.065
			c-0.058,0.09,0.022,0.129,0.073,0.178c0.052,0.089,0.112,0.241-0.018,0.243c-0.41,0.006-0.153,0.55-0.501,0.58
			c0.122,0.259-0.133,0.411-0.176,0.621c-0.044,0.217-0.161,0.393-0.285,0.564c-0.224,0.31-0.442,0.614-0.372,1.034
			c0.011,0.066-0.064,0.167-0.127,0.219c-0.177,0.148-0.429,0.233-0.235,0.562c0.056,0.095-0.152,0.206-0.25,0.299
			c-0.104,0.099-0.294,0.163-0.127,0.36c0.014,0.016,0,0.079-0.021,0.099c-0.452,0.429-0.376,1.01-0.402,1.541
			c-0.015,0.301-0.266,0.251-0.387,0.401c0.122,0.119,0.394,0.227,0.055,0.404c-0.057,0.03-0.018,0.061,0.025,0.103
			c0.116,0.111,0.106,0.283,0.013,0.369c-0.241,0.224-0.097,0.472-0.089,0.712c0.015,0.407-0.103,0.799-0.102,1.209
			c0.001,0.494,0.003,0.985,0.096,1.468c0.112,0.582,0.213,1.172,0.397,1.732c0.276,0.842,0.693,1.618,1.23,2.333
			c0.71,0.946,1.574,1.731,2.554,2.368c0.488,0.317,0.996,0.62,1.563,0.835c0.726,0.275,1.453,0.564,2.189,0.797
			c0.772,0.244,1.576,0.417,2.396,0.484c0.657,0.054,1.31,0.159,1.962,0.26c0.112,0.017,0.222,0.036,0.334,0.036
			c1.19-0.003,2.388,0.08,3.565-0.093c0.854-0.126,1.714-0.242,2.562-0.432c0.947-0.213,1.877-0.483,2.813-0.729
			c0.679-0.178,1.358-0.357,2.022-0.58c0.318-0.107,0.64-0.231,0.948-0.4c0.217-0.119,0.517-0.202,0.788-0.272
			c0.424-0.109,0.801-0.318,1.193-0.509c0.548-0.268,1.093-0.555,1.665-0.774c0.351-0.134,0.636-0.399,0.992-0.496
			c0.596-0.162,1.01-0.619,1.522-0.914c0.634-0.366,1.214-0.847,1.788-1.322c0.676-0.559,1.315-1.162,1.924-1.783
			c0.367-0.374,0.821-0.698,1.087-1.14c0.443-0.735,0.972-1.416,1.347-2.199c0.278-0.58,0.598-1.143,0.881-1.724
			c0.455-0.934,0.733-1.93,0.94-2.939c0.106-0.52,0.072-1.068,0.164-1.598c0.021-0.122-0.027-0.189-0.164-0.184
			c-0.766,0.033-1.536,0.031-2.298,0.104c-0.504,0.048-1.002,0.08-1.497-0.006c-0.13-0.023-0.213,0.05-0.319,0.049
			c-1.026-0.005-2.052-0.005-3.077-0.028c-0.242-0.005-0.48,0.097-0.722,0.014c-0.009-0.095,0.116-0.024,0.132-0.134
			c-0.323,0.018-0.634,0.097-0.961,0.018c-0.789-0.191-1.607-0.096-2.417-0.274c-0.674-0.148-1.395-0.373-2.124-0.205
			c-0.064,0.015-0.124-0.002-0.173-0.053c-0.324-0.342-0.762-0.308-1.167-0.306c-0.209,0.001-0.33-0.123-0.498-0.173
			c-0.554-0.164-1.148-0.245-1.643-0.544c-0.332-0.2-0.694-0.344-1.035-0.489c-0.441-0.188-0.643-0.56-0.944-0.851
			c-0.258-0.249-0.463-0.548-0.834-0.657c-0.063-0.018-0.102-0.134-0.142-0.21c-0.234-0.447-0.268-0.966-0.492-1.411
			c-0.119-0.237-0.118-0.503-0.239-0.742c-0.033-0.066-0.046-0.4,0.016-0.481c0.174-0.224-0.041-0.295-0.087-0.431
			c-0.032-0.094-0.355-0.177-0.025-0.31c0.005-0.002-0.078-0.191-0.096-0.296c-0.015-0.086-0.074-0.192,0.066-0.255
			c0.203-0.092,0.218-0.126,0.077-0.26c-0.144-0.137-0.049-0.25-0.009-0.373c0.115-0.349,0.137-0.792,0.369-1.027
			c0.466-0.474,0.718-1.163,1.436-1.419c0.171-0.061,0.511-0.159,0.582-0.466c0.007-0.031,0.08-0.056,0.127-0.066
			c0.849-0.176,1.577-0.682,2.419-0.882c0.253-0.06,0.513-0.096,0.758-0.164c0.61-0.168,1.237-0.251,1.844-0.395
			c0.764-0.181,1.516-0.202,2.279-0.188c0.413,0.007,0.83-0.04,1.242,0.064c0.925,0.232,1.884,0.278,2.81,0.532
			c0.559,0.153,1.114,0.333,1.629,0.565c0.417,0.188,0.808,0.479,1.222,0.703c0.387,0.209,0.734,0.48,1.13,0.679
			c0.332,0.167,0.596,0.462,0.911,0.669c0.477,0.314,0.731,0.86,1.25,1.142c0.147,0.08,0.239,0.359,0.345,0.551
			c0.184,0.332,0.365,0.653,0.74,0.807c0.163,0.067,0.237,0.241,0.299,0.375c0.222,0.481,0.439,0.945,0.805,1.356
			c0.249,0.278,0.325,0.707,0.492,1.063c0.11,0.234-0.288-0.023-0.197,0.224c0.076,0.206,0.391-0.069,0.282,0.084
			c-0.241,0.338,0.183,0.346,0.206,0.558c0.027,0.24,0.012,0.495,0.083,0.738c0.054,0.182,0.167,0.366-0.012,0.581
			c-0.117,0.14,0.1,0.219,0.197,0.23c0.249,0.028,0.501,0.033,0.754-0.01c0.986-0.165,1.987-0.269,2.956-0.503
			c0.594-0.144,1.213-0.027,1.785-0.262c0.067-0.028,0.101,0.063,0.153,0.078c0.368,0.108,0.726,0.104,1.075-0.087
			c0.081-0.044,0.196-0.035,0.295-0.035c0.494-0.003,1.008-0.09,1.477,0.018c0.851,0.195,1.749,0.126,2.568,0.509
			c0.409,0.191,0.861,0.293,1.291,0.442c0.167,0.058,0.278,0.155,0.404,0.246c0.48,0.344,1.036,0.583,1.462,0.994
			c0.412,0.398,0.822,0.798,1.181,1.255c0.252,0.321,0.534,0.633,0.817,0.936c0.211,0.226,0.339,0.537,0.537,0.752
			c0.183,0.198,0.244,0.44,0.402,0.63c0.279,0.334,0.445,0.715,0.57,1.129c0.092,0.304,0.249,0.583,0.337,0.898
			c0.191,0.689,0.148,1.387,0.002,2.043c-0.128,0.574-0.218,1.193-0.573,1.704c-0.034,0.048-0.029,0.129-0.069,0.166
			c-0.275,0.254-0.564,0.47-0.732,0.845c-0.129,0.288-0.602,0.232-0.804,0.508c-0.273,0.373-0.729,0.509-1.041,0.837
			c-0.194,0.203-0.476,0.244-0.766,0.23c-0.231-0.011-0.511-0.09-0.57,0.304c-0.013,0.089-0.245,0.192-0.419,0.115
			c-0.2-0.089-0.36-0.049-0.475,0.142c-0.07,0.115-0.179,0.125-0.296,0.118c-0.358-0.022-0.685,0.071-0.989,0.261
			c-0.071,0.044-0.164,0.079-0.246,0.078c-1.008-0.018-1.981,0.282-2.978,0.333c-0.485,0.025-0.978,0.078-1.467-0.05
			c-0.271-0.071-0.557,0.01-0.838,0.003c-0.765-0.018-1.513-0.178-2.237-0.356c-0.489-0.12-1.005-0.244-1.487-0.465
			c-0.395-0.181-0.794-0.365-1.186-0.577c-0.124,0.687-0.399,1.29-0.613,1.914c-0.186,0.544-0.568,1.013-0.686,1.562
			c-0.103,0.48-0.317,0.902-0.452,1.355c-0.072,0.24-0.195,0.427-0.293,0.64c-0.117,0.254-0.11,0.536-0.238,0.805
			c-0.209,0.44-0.242,0.961-0.436,1.41c-0.368,0.848-0.505,1.757-0.781,2.626c-0.277,0.868-0.393,1.761-0.573,2.644
			c-0.071,0.349-0.281,0.519-0.635,0.458c-0.049-0.008-0.129-0.033-0.142-0.014c-0.223,0.319-0.602,0.113-0.85,0.249
			c-0.436,0.238-0.878,0.056-1.313,0.107c-0.38,0.045-0.615-0.305-0.629-0.87c-0.009-0.387-0.043-0.775,0.064-1.162
			c0.127-0.458,0.203-0.928,0.159-1.409c-0.018-0.201,0.183-0.321,0.197-0.509c0.021-0.277,0.459-0.458,0.185-0.803
			c0.253-0.243,0.201-0.595,0.317-0.885c0.178-0.443,0.293-0.907,0.456-1.351c0.231-0.633,0.435-1.277,0.74-1.889
			c0.164-0.329,0.227-0.748,0.345-1.121c0.187-0.588,0.468-1.146,0.639-1.738c0.13-0.45,0.384-0.855,0.457-1.318
			c0.032-0.207,0.23-0.263,0.294-0.421c0.267-0.661,0.79-1.201,0.969-1.89c0.199-0.765,0.676-1.388,0.948-2.109
			c0.185-0.492,0.341-0.995,0.539-1.482c0.147-0.363,0.392-0.692,0.503-1.063c0.235-0.785,0.659-1.502,0.797-2.325
			c0.043-0.257,0.227-0.51,0.398-0.724c0.449-0.564,0.746-1.217,1.116-1.826c0.119-0.195,0.118-0.461,0.358-0.559
			c-0.489-0.172-0.973-0.159-1.44-0.057c-0.467,0.102-0.986-0.011-1.408,0.341c0.155,0.136,0.242,0.313,0.2,0.541
			c-0.036,0.195-0.069,0.373,0.052,0.582c0.06,0.104,0.187,0.422-0.147,0.517c-0.078,0.022-0.015,0.095-0.011,0.151
			c0.043,0.541-0.062,1.065-0.13,1.598c-0.065,0.507-0.379,0.873-0.486,1.341c-0.05,0.217-0.157,0.499-0.311,0.726
			c-0.147,0.216-0.239,0.462-0.286,0.748c-0.052,0.315-0.304,0.597-0.472,0.893c-0.03,0.054-0.107,0.108-0.1,0.151
			c0.097,0.552-0.353,0.872-0.552,1.295c-0.161,0.343-0.197,0.738-0.465,1.036c-0.311,0.346-0.607,0.706-0.904,1.064
			c-0.077,0.092-0.245,0.142-0.152,0.327c0.03,0.059-0.051,0.122-0.105,0.138c-0.536,0.153-0.951,0.469-1.285,0.91
			c-0.091,0.12-0.296,0.09-0.391,0.241c-0.022,0.036-0.096,0.027-0.097,0.118c0,0.117,0.279,0.075,0.137,0.219
			c-0.143,0.145-0.236,0.341-0.438,0.434c-0.11,0.05-0.21,0.134-0.298,0.22c-0.378,0.367-0.843,0.603-1.296,0.851
			c-0.538,0.295-0.973,0.748-1.56,0.967c-0.718,0.267-1.378,0.665-2.086,0.963c-0.669,0.281-1.317,0.648-2.014,0.813
			c-0.542,0.128-1.016,0.407-1.543,0.561c-0.465,0.136-0.961,0.341-1.427,0.491c-0.551,0.177-1.106,0.404-1.71,0.47
			c-0.604,0.067-1.181,0.36-1.784,0.474c-0.752,0.142-1.479,0.383-2.237,0.5c-0.474,0.073-0.963,0.072-1.418,0.27
			c-0.422,0.183-0.888,0.111-1.331,0.157c-0.669,0.07-1.325,0.216-1.999,0.266c-0.807,0.06-1.614,0.087-2.42,0.098
			c-1.224,0.016-2.444-0.101-3.651-0.286c-0.477-0.073-0.978-0.039-1.433-0.216c-0.347-0.135-0.733-0.128-1.058-0.322
			c-0.03-0.018-0.064-0.04-0.098-0.042c-1.023-0.057-1.956-0.421-2.869-0.846c-0.68-0.316-1.396-0.584-1.929-1.137
			c-0.114-0.119-0.284-0.19-0.352-0.385c-0.041-0.118-0.287-0.035-0.437-0.148c-0.825-0.623-1.551-1.338-2.149-2.183
			c-0.531-0.75-0.927-1.575-1.285-2.413c-0.328-0.768-0.47-1.587-0.473-2.43c-0.002-0.4-0.065-0.802-0.131-1.197
			c-0.031-0.186,0.028-0.344,0.062-0.513c0.098-0.481,0.219-1.013,0.158-1.452c-0.117-0.843,0.395-1.519,0.417-2.316
			c0.007-0.264,0.252-0.705,0.598-0.916c-0.063-0.04-0.146-0.091-0.197-0.124c0.245-0.305,0.429-0.664,0.45-1.038
			c0.027-0.487,0.221-0.896,0.41-1.319c0.011-0.024,0.058-0.046,0.087-0.045c0.189,0.008,0.442-0.167,0.416-0.394
			c-0.074-0.654,0.452-1.021,0.655-1.534c0.178-0.449,0.636-0.578,0.881-0.932c0.211-0.305,0.568-0.544,0.462-0.998
			c-0.012-0.05,0.013-0.091,0.078-0.102c0.29-0.046,0.722-0.476,0.782-0.755c0.027-0.124-0.053-0.072-0.099-0.082
			C5.149,90.8,5.129,90.781,5.11,90.763z M24.657,88.417c0.145,0.236,0,0.581,0.309,0.738c0.016,0.008,0.019,0.07,0.008,0.1
			c-0.086,0.242-0.089,0.245,0.101,0.343c0.104,0.054,0.207,0.118,0.221,0.238c0.076,0.625,0.554,1.004,0.946,1.385
			c0.575,0.559,1.354,0.852,2.086,1.156c0.514,0.213,1.04,0.449,1.609,0.531c0.464,0.067,0.923,0.243,1.384,0.243
			c0.608,0,1.2,0.105,1.789,0.19c0.915,0.133,1.835,0.216,2.752,0.269c1.093,0.062,2.193-0.007,3.289,0.021
			c0.984,0.025,1.954-0.128,2.933-0.166c0.269-0.011,0.467-0.111,0.352-0.488c-0.065-0.214-0.095-0.464-0.143-0.687
			c-0.197-0.914-0.51-1.796-0.93-2.635c-0.702-1.403-1.699-2.59-2.883-3.585c-0.744-0.625-1.63-1.095-2.536-1.479
			c-1.191-0.505-2.451-0.793-3.73-0.905c-1.477-0.129-2.947,0.012-4.381,0.438c-0.742,0.221-1.418,0.564-2.044,1.011
			c-0.09,0.064-0.245,0.236-0.208,0.247c0.337,0.101,0.017,0.178-0.003,0.253c-0.072,0.268-0.347,0.097-0.489,0.196
			c-0.025,0.165,0.22,0.216,0.049,0.464c-0.188,0.275-0.26,0.67-0.317,1.038c-0.03,0.191,0.022,0.552-0.376,0.532
			c-0.014-0.001-0.05,0.064-0.042,0.085c0.086,0.227-0.101,0.487,0.104,0.693C24.549,88.577,24.602,88.499,24.657,88.417z
			 M50.243,96.407c0.371,0.083,0.196,0.239,0.132,0.361c-0.191,0.359-0.387,0.716-0.59,1.069c-0.091,0.159-0.208,0.438-0.305,0.435
			c-0.337-0.011-0.316,0.218-0.301,0.391c0.016,0.173-0.066,0.288-0.104,0.431c-0.117,0.431-0.593,0.58-0.662,1.115
			c-0.085,0.665-0.553,1.263-0.742,1.939c-0.076,0.272-0.172,0.561-0.34,0.78c-0.402,0.524-0.513,1.159-0.739,1.749
			c-0.068,0.178-0.009,0.338,0.228,0.427c0.789,0.298,1.637,0.295,2.445,0.567c1.03,0.347,2.131,0.43,3.251,0.288
			c0.816-0.104,1.625-0.205,2.391-0.487c1.351-0.498,2.657-1.087,3.65-2.194c0.318-0.354,0.592-0.732,0.771-1.172
			c0.21-0.514,0.345-1.06,0.222-1.605c-0.193-0.859-0.51-1.67-0.934-2.457c-0.438-0.811-0.998-1.527-1.598-2.191
			c-0.614-0.68-1.347-1.287-2.223-1.637c-0.399-0.159-0.838-0.346-1.274-0.252c-0.75,0.162-1.495,0.38-2.079,0.925
			c-0.321,0.299-0.552,0.685-0.721,1.073C50.622,96.186,50.629,96.411,50.243,96.407z M7.351,92.112
			C7.333,92.103,7.314,92.086,7.3,92.09c-0.021,0.005-0.039,0.024-0.058,0.037c0.028,0.014,0.055,0.028,0.083,0.042
			C7.333,92.15,7.342,92.131,7.351,92.112z"/>
		<path style="fill:#FFFFFF;" d="M88.034,87.909c0.558,0.055,1.046,0.002,1.461,0.309c0.435,0.321,0.762,0.725,1.017,1.201
			c0.214,0.4,0.11,0.779-0.005,1.171c-0.073,0.248-0.31,0.359-0.477,0.473c-0.282,0.193-0.599,0.393-0.988,0.359
			c-0.594-0.053-1.168,0.136-1.762,0.16c-0.574,0.023-1.024-0.175-1.38-0.522c-0.223-0.217-0.278-0.621-0.231-0.976
			c0.007-0.056,0.083-0.131,0.02-0.165c-0.362-0.194-0.357-0.505-0.2-0.791c0.144-0.263,0.34-0.496,0.576-0.713
			c0.418-0.385,0.924-0.305,1.393-0.405C87.672,87.966,87.888,87.841,88.034,87.909z"/>
		<path style="fill:#FFFFFF;" d="M5.168,90.818c-0.027,0.064-0.07,0.084-0.132,0.046c0.025-0.034,0.05-0.067,0.074-0.101
			C5.129,90.781,5.149,90.8,5.168,90.818z"/>
		<path style="fill:#FFFFFF;" d="M138.233,100.161c0-0.024,0.004-0.048,0.01-0.072c0.041-0.015,0.082-0.029,0.124-0.044
			c0,0.031,0.012,0.072-0.003,0.089C138.331,100.171,138.292,100.237,138.233,100.161z"/>
	</g>
	<path style="fill:#FFFFFF;" d="M236.96,23.991c-0.819,1.684-2.158,0.148-2.59-0.516c-4.951-7.618-4.784-19.109-1.284-18.172
		C238.767,6.823,238.049,21.753,236.96,23.991 M232.138,21.136c0.465,1.012,0.99,1.994,1.577,2.928
		c0.156,0.248,0.411,0.588,0.72,0.891c0.502,1.79-1.236,1.55-1.931,1.563c-8.515,0.162-16.629-8.689-12.088-12.284
		C223.587,11.724,229.04,17.029,232.138,21.136 M235.252,25.985c0.005-0.137-0.004-0.288-0.034-0.459
		c0.126,0.06,0.255,0.109,0.385,0.132C235.473,25.772,235.358,25.88,235.252,25.985 M247.969,13.751
		c-4.797,0.606-8.164,7.505-8.618,8.482c-0.531-0.076-1.114,0.318-1.377,0.969c-0.151,0.375-0.167,0.761-0.071,1.083
		c-0.202,0.039-0.458,0.126-0.761,0.28c1.531-3.195,3.084-22.764-4.312-24.51c-3.867-0.914-4.995,9.769-1.534,19.058
		c-3.789-4.726-9.47-9.817-12.897-7.035c-5.413,4.394,4.281,15.241,14.443,15.057c0.408-0.008,1.119,0.06,1.666-0.131
		c-0.171,0.352-0.186,0.39-0.786,0.73c-0.676,0.383-2.449,1.103-3.491,1.157c-1.042,0.055,2.084,1.214,5.321-0.835
		c2.243-1.422,3.07-2.367,3.171-3.035c0.522,0.055,1.086-0.335,1.344-0.972c0.176-0.436,0.166-0.886,0.013-1.231
		c2.04-1.529,5.876-3.83,9.02-2.382c3.235,1.218,2.348,3.821,2.083,4.199c-0.233,0.333-1.249,1.353-2.519,0.8
		c-1.093-0.474-1.08-1.559-0.61-1.989c0.066,0.12,0.153,0.229,0.284,0.299c0.356,0.193,0.801,0.058,0.993-0.298
		c0.191-0.357,0.057-0.801-0.299-0.993c-0.356-0.191-0.801-0.058-0.993,0.298c-0.066,0.123-0.08,0.255-0.074,0.384
		c-0.816,0.294-1.055,1.919,0.458,2.576c1.537,0.668,2.788-0.55,3.048-0.969c0.236-0.379,1.249-3.3-2.303-4.618
		c-3.332-1.487-7.248,0.848-9.296,2.38c-0.049-0.051-0.103-0.096-0.164-0.134c0.53-1.122,3.849-7.746,8.627-8.29
		c3.897-0.444,3.985,2.368,3.953,2.828c-0.027,0.406-0.366,1.804-1.738,1.99c-1.18,0.161-1.732-0.772-1.553-1.383
		c0.118,0.068,0.251,0.115,0.398,0.108c0.404-0.02,0.715-0.365,0.693-0.77c-0.022-0.404-0.366-0.715-0.771-0.693
		c-0.404,0.02-0.715,0.365-0.693,0.77c0.008,0.139,0.063,0.26,0.136,0.366c-0.545,0.676,0.094,2.188,1.728,1.965
		c1.661-0.227,2.098-1.917,2.103-2.409C252.595,16.407,252.675,13.157,247.969,13.751"/>
	<path style="fill:#FFFFFF;" d="M297.965,102.648h-1.416v8.915h1.416V102.648z M295.675,111.445l-2.522-3.475
		c0.427-0.323,0.771-0.657,1.029-1c0.259-0.344,0.459-0.715,0.602-1.116c0.143-0.399,0.237-0.835,0.283-1.307
		c0.044-0.47,0.067-1.004,0.067-1.601v-0.298h-1.518v0.35c0,0.454-0.005,0.88-0.016,1.277c-0.011,0.398-0.047,0.77-0.105,1.116
		c-0.06,0.346-0.161,0.668-0.304,0.967c-0.143,0.298-0.341,0.568-0.595,0.813l-3.414-4.522h-1.695v0.112l2.175,2.912
		c-0.427,0.346-0.771,0.729-1.029,1.15c-0.259,0.42-0.459,0.865-0.602,1.336c-0.143,0.472-0.238,0.962-0.283,1.473
		c-0.046,0.511-0.067,1.033-0.067,1.567v0.366h1.467v-0.332c0-0.465,0.011-0.937,0.034-1.414c0.022-0.477,0.07-0.924,0.143-1.341
		c0.072-0.417,0.188-0.8,0.345-1.15c0.157-0.349,0.374-0.629,0.65-0.838l3.693,5.075h1.661V111.445z M286.658,102.648h-1.416v5.118
		h1.416V102.648z M283.704,104.713c-0.194-0.605-0.459-1.078-0.796-1.417c-0.231-0.233-0.506-0.399-0.827-0.498
		c-0.321-0.099-0.677-0.15-1.071-0.15h-3.28v1.414h3.247c0.185,0,0.352,0.016,0.502,0.047c0.148,0.032,0.274,0.099,0.375,0.2
		c0.174,0.165,0.332,0.459,0.475,0.881c0.143,0.423,0.216,1.061,0.216,1.912c0,0.477-0.02,0.877-0.06,1.201
		c-0.039,0.325-0.09,0.591-0.151,0.801c-0.062,0.209-0.137,0.375-0.224,0.498c-0.086,0.122-0.177,0.222-0.274,0.302
		c-0.191,0.165-0.478,0.247-0.86,0.247h-3.247v1.414h3.212c0.383,0,0.728-0.047,1.037-0.141c0.309-0.094,0.579-0.251,0.81-0.473
		c0.36-0.323,0.65-0.794,0.872-1.408c0.222-0.616,0.333-1.43,0.333-2.44C283.996,106.114,283.898,105.318,283.704,104.713
		 M276.777,102.648h-1.416v8.915h1.416V102.648z M273.784,105.876c0-0.754-0.055-1.327-0.164-1.715
		c-0.11-0.389-0.274-0.7-0.493-0.933c-0.164-0.188-0.36-0.331-0.591-0.43c-0.231-0.099-0.522-0.15-0.877-0.15h-4.924v6.719
		c0,0.266-0.09,0.48-0.27,0.643c-0.179,0.162-0.423,0.242-0.733,0.242c-0.197,0-0.35-0.014-0.46-0.042
		c-0.109-0.029-0.214-0.06-0.316-0.094v1.397c0.164,0.056,0.308,0.09,0.434,0.101c0.127,0.011,0.269,0.018,0.426,0.018
		c0.714,0,1.282-0.2,1.704-0.601c0.421-0.401,0.633-0.984,0.633-1.749v-5.221h3.592c0.09,0,0.183,0.032,0.278,0.094
		c0.09,0.08,0.17,0.236,0.241,0.469c0.07,0.232,0.105,0.61,0.105,1.132v5.808h1.416V105.876z M260.731,105.876
		c0-0.754-0.055-1.327-0.165-1.715c-0.109-0.389-0.271-0.7-0.484-0.933c-0.164-0.188-0.36-0.331-0.591-0.43
		c-0.229-0.099-0.525-0.15-0.885-0.15h-5.194v8.916h1.416v-7.502h3.87c0.113,0,0.217,0.032,0.312,0.094
		c0.09,0.08,0.164,0.236,0.219,0.469c0.056,0.232,0.085,0.61,0.085,1.132v5.808h1.416V105.876z M251.832,102.648h-1.416v5.118h1.416
		V102.648z M248.881,102.648h-1.416v5.118h1.416V102.648z M239.896,110.236v-6.208h4.005c0.119,0,0.223,0.032,0.313,0.094
		c0.089,0.08,0.164,0.242,0.223,0.486c0.058,0.245,0.089,0.628,0.089,1.15v4.479H239.896z M245.942,105.876
		c0-0.754-0.055-1.327-0.165-1.715c-0.109-0.389-0.274-0.7-0.493-0.933c-0.162-0.188-0.36-0.331-0.589-0.43
		c-0.231-0.099-0.524-0.15-0.877-0.15h-5.337v8.916h7.462V105.876z"/>
	<path style="fill:#FFFFFF;" d="M292.35,92.678h-1.416v5.16h1.416V92.678z M297.965,92.15c0-0.754-0.055-1.327-0.164-1.715
		c-0.11-0.389-0.275-0.7-0.494-0.933c-0.162-0.188-0.359-0.331-0.59-0.43c-0.231-0.099-0.522-0.15-0.877-0.15h-4.907v1.414h4.992
		c0.112,0,0.215,0.032,0.312,0.094c0.09,0.08,0.164,0.236,0.223,0.469c0.06,0.232,0.089,0.61,0.089,1.132v5.808h1.416V92.15z
		 M289.417,92.015c0-0.557-0.066-1.028-0.198-1.414c-0.132-0.387-0.325-0.712-0.578-0.98c-0.264-0.289-0.577-0.489-0.939-0.6
		c-0.363-0.112-0.763-0.166-1.202-0.166h-0.169c-0.787,0-1.434,0.255-1.94,0.766c-0.162,0.165-0.319,0.389-0.468,0.673
		c-0.148,0.284-0.269,0.562-0.359,0.834l-0.16,0.451l-1.155-2.657h-1.501l1.762,4.224l-1.45,4.692h1.485l1.813-5.824
		c0.185-0.609,0.416-1.051,0.691-1.329c0.164-0.16,0.347-0.274,0.553-0.345c0.204-0.071,0.439-0.106,0.704-0.106h0.127
		c0.472,0,0.851,0.145,1.138,0.434c0.286,0.29,0.43,0.772,0.43,1.448v4.326h-2.85v1.397h4.266V92.015z M280.051,92.15
		c0-0.754-0.055-1.327-0.165-1.715c-0.109-0.389-0.274-0.7-0.493-0.933c-0.162-0.188-0.359-0.331-0.589-0.43
		c-0.231-0.099-0.524-0.15-0.877-0.15h-3.87v1.414h3.921c0.044,0,0.094,0.019,0.147,0.056c0.053,0.037,0.109,0.072,0.165,0.106
		c0.09,0.08,0.17,0.229,0.241,0.451c0.07,0.222,0.105,0.593,0.105,1.116v5.773h1.416V92.15z M273.381,90.988
		c-0.194-0.605-0.459-1.078-0.796-1.417c-0.231-0.233-0.506-0.399-0.827-0.498c-0.321-0.099-0.677-0.15-1.071-0.15h-3.28v1.414
		h3.247c0.185,0,0.352,0.016,0.501,0.047c0.15,0.032,0.275,0.099,0.375,0.2c0.175,0.165,0.333,0.459,0.477,0.881
		c0.143,0.423,0.216,1.061,0.216,1.912c0,0.477-0.02,0.877-0.06,1.201c-0.039,0.325-0.09,0.591-0.151,0.801
		c-0.062,0.209-0.137,0.375-0.224,0.498c-0.087,0.122-0.179,0.222-0.274,0.302c-0.191,0.165-0.478,0.247-0.86,0.247h-3.247v1.414
		h3.212c0.383,0,0.728-0.047,1.037-0.141c0.309-0.094,0.579-0.251,0.81-0.473c0.359-0.323,0.65-0.794,0.872-1.408
		c0.222-0.616,0.333-1.43,0.333-2.44C273.672,92.388,273.575,91.592,273.381,90.988 M266.709,88.922h-4.485v1.414h2.589
		c-0.209,0.052-0.379,0.141-0.511,0.269c-0.132,0.128-0.235,0.273-0.308,0.434c-0.072,0.162-0.124,0.33-0.156,0.503
		c-0.03,0.172-0.046,0.331-0.046,0.473v5.824h1.416v-6.19c0-0.176,0.015-0.342,0.047-0.498c0.03-0.156,0.085-0.295,0.164-0.417
		c0.079-0.123,0.188-0.219,0.325-0.29c0.138-0.071,0.322-0.106,0.553-0.106h0.413V88.922z M257.947,88.922h-5.025v-3.201h-1.416
		v4.36c0,0.17,0.086,0.255,0.261,0.255h4.663l-0.776,4.343c-0.118,0.641-0.352,1.093-0.704,1.354
		c-0.352,0.261-0.786,0.392-1.303,0.392h-0.379v1.414h0.48c0.393,0,0.768-0.049,1.126-0.15c0.356-0.099,0.681-0.265,0.974-0.498
		c0.292-0.232,0.548-0.549,0.767-0.95c0.219-0.399,0.388-0.904,0.506-1.511l1.012-5.51
		C258.172,89.023,258.109,88.922,257.947,88.922 M250.836,92.15c0-0.754-0.055-1.327-0.164-1.715c-0.11-0.389-0.275-0.7-0.494-0.933
		c-0.162-0.188-0.359-0.331-0.589-0.43c-0.231-0.099-0.522-0.15-0.877-0.15h-3.87v1.414h3.921c0.046,0,0.094,0.019,0.147,0.056
		c0.055,0.037,0.109,0.072,0.165,0.106c0.09,0.08,0.17,0.229,0.241,0.451c0.07,0.222,0.105,0.593,0.105,1.116v5.773h1.416V92.15z
		 M244.252,91.924c-0.046-0.406-0.114-0.759-0.207-1.06c-0.094-0.302-0.203-0.559-0.33-0.775c-0.126-0.217-0.276-0.412-0.451-0.588
		c-0.224-0.222-0.496-0.373-0.813-0.455c-0.318-0.082-0.673-0.124-1.067-0.124h-4.333v3.406c0,0.279,0.014,0.522,0.042,0.733
		c0.028,0.209,0.089,0.382,0.181,0.515c0.093,0.133,0.226,0.235,0.401,0.303c0.174,0.067,0.399,0.101,0.674,0.101h1.728v-1.32
		h-1.213c-0.136,0-0.24-0.043-0.312-0.128c-0.057-0.079-0.085-0.257-0.085-0.536v-1.661h2.951c0.197,0,0.361,0.016,0.493,0.047
		c0.132,0.032,0.251,0.099,0.359,0.2c0.079,0.08,0.156,0.186,0.232,0.319c0.075,0.133,0.138,0.311,0.189,0.532
		c0.051,0.221,0.09,0.489,0.118,0.805c0.028,0.314,0.043,0.693,0.043,1.136c0,0.465-0.011,0.857-0.034,1.175
		c-0.023,0.318-0.053,0.584-0.093,0.8c-0.039,0.217-0.095,0.388-0.165,0.516s-0.151,0.231-0.24,0.311
		c-0.198,0.165-0.487,0.247-0.87,0.247h-4.468v1.414h4.511c0.377,0,0.691-0.044,0.944-0.132c0.252-0.089,0.494-0.248,0.725-0.482
		c0.382-0.369,0.669-0.849,0.863-1.443c0.194-0.593,0.292-1.396,0.292-2.406C244.319,92.814,244.296,92.33,244.252,91.924
		 M235.532,88.922h-1.416v8.915h1.416V88.922z M233.243,97.719l-2.522-3.475c0.427-0.323,0.771-0.657,1.029-1
		c0.259-0.344,0.459-0.715,0.602-1.116c0.143-0.399,0.238-0.835,0.283-1.307c0.046-0.47,0.067-1.004,0.067-1.601v-0.298h-1.517v0.35
		c0,0.454-0.005,0.88-0.016,1.277c-0.011,0.398-0.047,0.77-0.105,1.116c-0.06,0.346-0.161,0.668-0.304,0.967
		c-0.143,0.298-0.341,0.568-0.595,0.813l-3.414-4.522h-1.695v0.112l2.175,2.912c-0.427,0.346-0.771,0.729-1.029,1.15
		c-0.259,0.42-0.459,0.865-0.602,1.336c-0.143,0.472-0.237,0.962-0.283,1.473c-0.044,0.511-0.067,1.033-0.067,1.567v0.366h1.467
		v-0.332c0-0.465,0.011-0.937,0.034-1.414c0.022-0.477,0.07-0.924,0.143-1.341c0.072-0.417,0.188-0.8,0.346-1.15
		c0.157-0.349,0.373-0.629,0.649-0.838l3.693,5.075h1.661V97.719z M218.531,92.678h-1.416v5.16h1.416V92.678z M224.145,92.15
		c0-0.754-0.055-1.327-0.164-1.715c-0.11-0.389-0.275-0.7-0.493-0.933c-0.164-0.188-0.36-0.331-0.591-0.43
		c-0.231-0.099-0.522-0.15-0.877-0.15h-4.907v1.414h4.992c0.112,0,0.216,0.032,0.312,0.094c0.09,0.08,0.165,0.236,0.223,0.469
		c0.06,0.232,0.089,0.61,0.089,1.132v5.808h1.416V92.15z M212.534,97.719l-2.52-3.475c0.427-0.323,0.77-0.657,1.028-1
		c0.259-0.344,0.459-0.715,0.603-1.116c0.143-0.399,0.237-0.835,0.281-1.307c0.046-0.47,0.068-1.004,0.068-1.601v-0.298h-1.519v0.35
		c0,0.454-0.005,0.88-0.016,1.277c-0.011,0.398-0.046,0.77-0.105,1.116c-0.06,0.346-0.16,0.668-0.303,0.967
		c-0.145,0.298-0.342,0.568-0.595,0.813l-3.415-4.522h-1.695v0.112l2.175,2.912c-0.427,0.346-0.77,0.729-1.028,1.15
		c-0.259,0.42-0.46,0.865-0.603,1.336s-0.237,0.962-0.283,1.473c-0.044,0.511-0.067,1.033-0.067,1.567v0.366h1.467v-0.332
		c0-0.465,0.011-0.937,0.034-1.414s0.07-0.924,0.143-1.341c0.074-0.417,0.189-0.8,0.346-1.15c0.157-0.349,0.374-0.629,0.649-0.838
		l3.693,5.075h1.661V97.719z M201.392,95.062c-0.056,0.465-0.224,0.839-0.506,1.119c-0.28,0.281-0.75,0.422-1.407,0.422h-0.464
		c-0.635,0-1.069-0.119-1.298-0.357c-0.231-0.238-0.363-0.557-0.397-0.955l-0.48-4.99h5.109L201.392,95.062z M203.417,88.922h-8.053
		c-0.056,0-0.095,0.024-0.118,0.072c-0.023,0.049-0.034,0.09-0.034,0.124l0.658,6.122c0.056,0.557,0.165,1.012,0.325,1.367
		c0.16,0.355,0.377,0.635,0.649,0.839c0.273,0.204,0.596,0.344,0.97,0.417c0.374,0.074,0.808,0.11,1.303,0.11h0.363
		c0.449,0,0.867-0.066,1.251-0.2c0.385-0.133,0.724-0.33,1.017-0.591c0.292-0.261,0.536-0.589,0.733-0.984
		c0.198-0.394,0.33-0.858,0.397-1.392l0.691-5.688C203.59,88.988,203.54,88.922,203.417,88.922 M194.17,92.15
		c0-0.754-0.055-1.327-0.165-1.715c-0.109-0.389-0.274-0.7-0.493-0.933c-0.164-0.188-0.36-0.331-0.589-0.43
		c-0.231-0.099-0.524-0.15-0.877-0.15h-4.924v6.719c0,0.266-0.09,0.48-0.27,0.643c-0.18,0.162-0.425,0.242-0.734,0.242
		c-0.196,0-0.35-0.014-0.459-0.042c-0.11-0.029-0.216-0.06-0.317-0.094v1.397c0.164,0.056,0.308,0.09,0.435,0.101
		c0.127,0.011,0.269,0.018,0.426,0.018c0.714,0,1.282-0.2,1.703-0.601c0.422-0.401,0.633-0.984,0.633-1.749v-5.221h3.591
		c0.09,0,0.183,0.032,0.279,0.094c0.09,0.08,0.17,0.236,0.24,0.469c0.071,0.232,0.106,0.61,0.106,1.132v5.808h1.416V92.15z
		 M185.211,89.276c0-0.105-0.023-0.186-0.067-0.242c-0.051-0.074-0.143-0.112-0.279-0.112h-4.114v1.414h2.85l-0.549,4.641
		c-0.067,0.619-0.276,1.037-0.628,1.256c-0.351,0.218-0.805,0.327-1.362,0.327h-0.312c-0.517,0-0.903-0.098-1.155-0.293
		c-0.254-0.197-0.402-0.555-0.448-1.078l-0.624-6.268h-1.517l0.658,6.302c0.056,0.557,0.166,1.014,0.332,1.375
		c0.166,0.36,0.385,0.643,0.658,0.847c0.273,0.204,0.591,0.344,0.953,0.417c0.363,0.074,0.768,0.11,1.218,0.11h0.169
		c1,0,1.805-0.241,2.415-0.724c0.61-0.482,0.98-1.256,1.109-2.324l0.657-5.288C185.199,89.502,185.211,89.381,185.211,89.276
		 M175.78,88.922h-1.416v5.118h1.416V88.922z M172.839,92.15c0-0.754-0.055-1.327-0.165-1.715c-0.109-0.389-0.274-0.7-0.493-0.933
		c-0.162-0.188-0.36-0.331-0.589-0.43c-0.231-0.099-0.524-0.15-0.877-0.15h-4.924v6.719c0,0.266-0.09,0.48-0.27,0.643
		c-0.18,0.162-0.425,0.242-0.734,0.242c-0.196,0-0.35-0.014-0.459-0.042c-0.11-0.029-0.216-0.06-0.317-0.094v1.397
		c0.164,0.056,0.308,0.09,0.435,0.101c0.127,0.011,0.269,0.018,0.426,0.018c0.714,0,1.282-0.2,1.703-0.601
		c0.422-0.401,0.633-0.984,0.633-1.749v-5.221h3.592c0.09,0,0.184,0.032,0.279,0.094c0.09,0.08,0.17,0.236,0.24,0.469
		c0.071,0.232,0.106,0.61,0.106,1.132v5.808h1.416V92.15z"/>
</g>
</svg>
